#!OML:ASF X:\für Bonn\!DataBase\2005_08_12_Daniel\c3d\Daniel.ASF
:FULLY-SPECIFIED
:DEGREES
109
root 2.41087 15.9815 1.77559 -617.552 -91.0758 607.18
lowerback 26.8252 0.259696 3.33564
upperback 3.19655 0.565566 -3.38492
thorax -11.2714 -0.111998 -5.96505
lowerneck 2.09586 -1.75112 -1.44892
upperneck -9.44209 -2.55281 -0.183455
head -3.3847 -1.25264 0.285361
rclavicle -4.17448e-015 3.18055e-015
rhumerus 33.0162 12.3637 -80.0742
rradius 76.3205
rwrist 25.3178
rhand -40.8604 370.783
rfingers 7.12502
rthumb -13.7971 -18.7395
lclavicle -4.17448e-015 3.18055e-015
lhumerus -139.57 209.886 -109.207
lradius 78.526
lwrist 26.8174
lhand -31.3005 5.14815
lfingers 7.12502
lthumb -4.57334 35.0788
rfemur -20.492 -9.22383 8.98258
rtibia 63.4764
rfoot -17.8571 1.50097
rtoes -8.35221
lfemur -200.001 188.415 -201.798
ltibia 59.8198
lfoot 329.303 -0.803354
ltoes 0.826434
110
root 2.35595 15.9285 1.77187 -615.137 -91.1031 604.439
lowerback 26.7225 0.240967 3.47617
upperback 2.89134 0.593445 -3.42956
thorax -11.5643 -0.115205 -6.11795
lowerneck 2.49064 -1.83547 -1.54825
upperneck -8.98569 -2.64599 -0.0506138
head -3.29807 -1.2962 0.349699
rclavicle -1.56046e-014 2.38542e-014
rhumerus 34.5436 11.7216 -79.6981
rradius 77.2773
rwrist 26.0521
rhand -42.4239 371.477
rfingers 7.12502
rthumb -15.3035 -17.9372
lclavicle -1.56046e-014 2.38542e-014
lhumerus -138.073 209.68 -109.591
lradius 79.4553
lwrist 26.4486
lhand -31.1801 4.71911
lfingers 7.12502
lthumb -4.45702 34.6522
rfemur -20.3591 -9.43944 8.77835
rtibia 64.281
rfoot -18.0067 1.70793
rtoes -8.73445
lfemur -199.827 188.142 -201.804
ltibia 60.5415
lfoot 328.832 -1.23877
ltoes 0.818383
111
root 2.29926 15.8726 1.76994 -613.615 -91.1466 602.59
lowerback 26.5983 0.232331 3.63132
upperback 2.61204 0.633328 -3.4951
thorax -11.8142 -0.114221 -6.30659
lowerneck 2.79771 -1.92496 -1.61508
upperneck -8.50834 -2.74598 0.0770966
head -3.1883 -1.34535 0.405423
rclavicle 3.97569e-016 -8.74653e-015
rhumerus 36.1077 11.0524 -79.2982
rradius 78.2218
rwrist 26.6204
rhand -44.0264 372.283
rfingers 7.12502
rthumb -16.8466 -17.0057
lclavicle 3.97569e-016 -8.74653e-015
lhumerus -136.578 209.475 -109.952
lradius 80.4059
lwrist 26.0692
lhand -30.9787 4.28136
lfingers 7.12502
lthumb -4.26259 34.2185
rfemur -20.2524 -9.64225 8.52586
rtibia 65.1139
rfoot -18.1328 1.9332
rtoes -9.03568
lfemur -199.647 187.868 -201.837
ltibia 61.2776
lfoot 328.366 -1.67491
ltoes 0.849944
112
root 2.24051 15.8161 1.76792 -610.857 -91.188 599.501
lowerback 26.4518 0.216627 3.78614
upperback 2.34148 0.664813 -3.5452
thorax -12.0437 -0.116924 -6.47341
lowerneck 3.07767 -2.00677 -1.61475
upperneck -8.02401 -2.84073 0.116374
head -3.07376 -1.39157 0.42014
rclavicle -1.49089e-016 1.98785e-014
rhumerus 37.6573 10.4189 -78.9297
rradius 79.147
rwrist 27.0809
rhand -45.5841 373.407
rfingers 7.12502
rthumb -18.3457 -15.7483
lclavicle -1.49089e-016 1.98785e-014
lhumerus -135.144 209.247 -110.266
lradius 81.3546
lwrist 25.6485
lhand -30.8085 3.65964
lfingers 7.12502
lthumb -4.09823 33.6
rfemur -20.1193 -9.86183 8.27596
rtibia 65.9623
rfoot -18.2721 2.21005
rtoes -9.28942
lfemur -199.47 187.617 -201.85
ltibia 62.0321
lfoot 327.887 -2.07764
ltoes 0.805198
113
root 2.182 15.7578 1.76687 -607.387 -91.2415 595.708
lowerback 26.3204 0.197612 3.93441
upperback 2.07096 0.692123 -3.57773
thorax -12.2824 -0.122142 -6.61544
lowerneck 3.3074 -2.09419 -1.65487
upperneck -7.5431 -2.94617 0.162357
head -2.95074 -1.443 0.443539
rclavicle -2.73329e-015 7.15625e-015
rhumerus 39.2247 9.82606 -78.5025
rradius 80.0258
rwrist 27.5219
rhand -47.1899 374.705
rfingers 7.12502
rthumb -19.8899 -14.2977
lclavicle -2.73329e-015 7.15625e-015
lhumerus -133.786 208.986 -110.442
lradius 82.264
lwrist 25.1961
lhand -30.5203 2.79581
lfingers 7.12502
lthumb -3.81989 32.7413
rfemur -19.9918 -10.1155 8.00182
rtibia 66.8232
rfoot -18.3992 2.55463
rtoes -9.49475
lfemur -199.306 187.406 -201.862
ltibia 62.8006
lfoot 327.397 -2.53041
ltoes 0.858735
114
root 2.1233 15.6991 1.7654 -604.953 -91.3295 592.965
lowerback 26.1456 0.202717 4.0523
upperback 1.823 0.736396 -3.63015
thorax -12.4694 -0.117555 -6.76626
lowerneck 3.47686 -2.19239 -1.59366
upperneck -7.04965 -3.06528 0.140056
head -2.8152 -1.50248 0.426837
rclavicle 4.51241e-014 -3.81667e-014
rhumerus 40.7756 9.18614 -78.0661
rradius 80.8995
rwrist 27.9401
rhand -48.9011 376.29
rfingers 7.12502
rthumb -21.534 -12.5325
lclavicle 4.51241e-014 -3.81667e-014
lhumerus -132.437 208.776 -110.608
lradius 83.1165
lwrist 24.7108
lhand -30.3069 1.65128
lfingers 7.12502
lthumb -3.61386 31.6004
rfemur -19.8821 -10.389 7.67681
rtibia 67.695
rfoot -18.5141 2.92847
rtoes -9.70457
lfemur -199.171 187.174 -201.904
ltibia 63.5858
lfoot 326.923 -2.94674
ltoes 0.840855
115
root 2.06808 15.6374 1.76378 -602.08 -91.4166 589.781
lowerback 25.9973 0.208414 4.15733
upperback 1.5845 0.779721 -3.66369
thorax -12.6601 -0.113018 -6.88803
lowerneck 3.63682 -2.29103 -1.51397
upperneck -6.58385 -3.18741 0.0853595
head -2.68891 -1.56321 0.396892
rclavicle -1.635e-014 3.57812e-014
rhumerus 42.2994 8.55716 -77.6494
rradius 81.7879
rwrist 28.4135
rhand -50.6285 378.302
rfingers 7.12502
rthumb -23.1922 -10.3214
lclavicle -1.635e-014 3.57812e-014
lhumerus -131.157 208.557 -110.701
lradius 83.9007
lwrist 24.2058
lhand -30.0569 0.250303
lfingers 7.12502
lthumb -3.37241 30.2034
rfemur -19.7768 -10.6437 7.35983
rtibia 68.5801
rfoot -18.6603 3.31388
rtoes -9.81989
lfemur -199.058 186.951 -201.918
ltibia 64.3874
lfoot 326.473 -3.41574
ltoes 0.889632
116
root 2.01448 15.574 1.76149 -598.822 -91.5083 586.23
lowerback 25.808 0.217319 4.2798
upperback 1.37045 0.829908 -3.69774
thorax -12.7984 -0.10456 -7.02025
lowerneck 3.76196 -2.4028 -1.42508
upperneck -6.13962 -3.32828 0.0129113
head -2.56458 -1.63332 0.360088
rclavicle 1.8487e-014 -1.74931e-014
rhumerus 43.6796 7.88023 -77.3333
rradius 82.8531
rwrist 29.0057
rhand -52.4061 380.722
rfingers 7.12502
rthumb -24.8968 -7.67684
lclavicle 1.8487e-014 -1.74931e-014
lhumerus -129.887 208.385 -110.795
lradius 84.5907
lwrist 23.7207
lhand -29.8381 -1.33321
lfingers 7.12502
lthumb -3.1611 28.6231
rfemur -19.7014 -10.9166 7.05842
rtibia 69.4793
rfoot -18.7499 3.69112
rtoes -9.9981
lfemur -198.996 186.757 -201.912
ltibia 65.2127
lfoot 326.039 -3.85921
ltoes 0.932666
117
root 1.96062 15.5085 1.75701 -596.689 -91.629 583.786
lowerback 25.6196 0.239319 4.3532
upperback 1.17844 0.879625 -3.74074
thorax -12.9117 -0.0932964 -7.13276
lowerneck 3.87435 -2.52755 -1.33098
upperneck -5.72854 -3.48715 -0.062745
head -2.44987 -1.71264 0.322203
rclavicle -7.09413e-015 2.62396e-014
rhumerus 45.0867 7.17034 -77.0021
rradius 83.8557
rwrist 29.6041
rhand -54.2606 383.817
rfingers 7.12502
rthumb -26.6728 -4.32369
lclavicle -7.09413e-015 2.62396e-014
lhumerus -128.666 208.253 -110.896
lradius 85.2343
lwrist 23.3437
lhand -29.6391 -2.90855
lfingers 7.12502
lthumb -2.96897 27.0505
rfemur -19.599 -11.1618 6.71667
rtibia 70.379
rfoot -18.819 4.09924
rtoes -10.1176
lfemur -198.908 186.545 -201.927
ltibia 66.0439
lfoot 325.614 -4.32547
ltoes 0.931513
118
root 1.90599 15.443 1.75086 -593.581 -91.7705 580.391
lowerback 25.4021 0.255801 4.4144
upperback 0.976176 0.921718 -3.75962
thorax -13.0225 -0.0837819 -7.2062
lowerneck 4.00296 -2.64673 -1.28799
upperneck -5.31886 -3.64219 -0.138603
head -2.33855 -1.78918 0.293154
rclavicle 3.6536e-014 -4.77083e-015
rhumerus 46.4812 6.48901 -76.657
rradius 84.775
rwrist 30.1282
rhand -56.1443 387.882
rfingers 7.12502
rthumb -28.4742 0.0293037
lclavicle 3.6536e-014 -4.77083e-015
lhumerus -127.579 208.161 -110.918
lradius 85.8556
lwrist 23.065
lhand -29.3775 -4.36804
lfingers 7.12502
lthumb -2.71631 25.5944
rfemur -19.5011 -11.4092 6.3937
rtibia 71.2763
rfoot -18.9161 4.49621
rtoes -10.1342
lfemur -198.857 186.366 -201.911
ltibia 66.8825
lfoot 325.228 -4.82413
ltoes 0.992349
119
root 1.85094 15.3773 1.74304 -591.553 -91.9302 578.087
lowerback 25.1538 0.29365 4.44626
upperback 0.789569 0.979327 -3.79137
thorax -13.0953 -0.064391 -7.28043
lowerneck 4.12099 -2.78813 -1.25397
upperneck -4.95474 -3.82834 -0.214584
head -2.24068 -1.88128 0.266923
rclavicle -5.92627e-015 5.56597e-015
rhumerus 47.8703 5.76918 -76.3282
rradius 85.6289
rwrist 30.6427
rhand -57.9981 392.697
rfingers 7.12502
rthumb -30.2441 5.15373
lclavicle -5.92627e-015 5.56597e-015
lhumerus -126.526 208.14 -110.955
lradius 86.4894
lwrist 22.9572
lhand -29.1629 -5.60219
lfingers 7.12502
lthumb -2.50907 24.3628
rfemur -19.3894 -11.6341 6.04612
rtibia 72.1545
rfoot -19.0073 4.94944
rtoes -10.0453
lfemur -198.814 186.186 -201.91
ltibia 67.7215
lfoot 324.834 -5.31437
ltoes 1.04212
120
root 1.79588 15.311 1.7343 -588.441 -92.0994 574.703
lowerback 24.9189 0.314081 4.51407
upperback 0.588211 1.02514 -3.82182
thorax -13.1936 -0.05435 -7.3715
lowerneck 4.27412 -2.93536 -1.1841
upperneck -4.60601 -4.02343 -0.34014
head -2.15664 -1.97722 0.220203
rclavicle -1.75676e-014 4.21423e-014
rhumerus 49.282 5.01813 -75.9972
rradius 86.3285
rwrist 31.0751
rhand -59.6505 398.422
rfingers 7.12502
rthumb -31.819 11.1795
lclavicle -1.75676e-014 4.21423e-014
lhumerus -125.601 208.205 -110.928
lradius 87.1479
lwrist 23.0604
lhand -28.9791 -6.74988
lfingers 7.12502
lthumb -2.33153 23.2171
rfemur -19.2623 -11.8843 5.73364
rtibia 73.0164
rfoot -19.1786 5.40327
rtoes -9.96724
lfemur -198.784 186.055 -201.862
ltibia 68.5651
lfoot 324.49 -5.80035
ltoes 1.11775
